<svg width="56" height="56" viewBox="0 0 56 56" fill="none" xmlns="http://www.w3.org/2000/svg">
<rect x="4" y="4" width="48" height="48" rx="24" fill="#B1CBE3" fill-opacity="0.6"/>
<rect x="4" y="4" width="48" height="48" rx="24" stroke="#E6EEF6" stroke-width="8"/>
<path d="M21 29H24M18 25L20 26L21.2706 22.1881C21.5329 21.4013 21.6641 21.0078 21.9073 20.717C22.1221 20.4601 22.3979 20.2613 22.7095 20.1388C23.0624 20 23.477 20 24.3064 20H31.6936C32.523 20 32.9376 20 33.2905 20.1388C33.6021 20.2613 33.8779 20.4601 34.0927 20.717C34.3359 21.0078 34.4671 21.4013 34.7294 22.1881L36 26L38 25M32 29H35M22.8 26H33.2C34.8802 26 35.7202 26 36.362 26.327C36.9265 26.6146 37.3854 27.0735 37.673 27.638C38 28.2798 38 29.1198 38 30.8V33.5C38 33.9647 38 34.197 37.9616 34.3902C37.8038 35.1836 37.1836 35.8038 36.3902 35.9616C36.197 36 35.9647 36 35.5 36H35C33.8954 36 33 35.1046 33 34C33 33.7239 32.7761 33.5 32.5 33.5H23.5C23.2239 33.5 23 33.7239 23 34C23 35.1046 22.1046 36 21 36H20.5C20.0353 36 19.803 36 19.6098 35.9616C18.8164 35.8038 18.1962 35.1836 18.0384 34.3902C18 34.197 18 33.9647 18 33.5V30.8C18 29.1198 18 28.2798 18.327 27.638C18.6146 27.0735 19.0735 26.6146 19.638 26.327C20.2798 26 21.1198 26 22.8 26Z" stroke="#024E95" stroke-width="2" stroke-linecap="round" stroke-linejoin="round"/>
</svg>
