<svg width="57" height="56" viewBox="0 0 57 56" fill="none" xmlns="http://www.w3.org/2000/svg">
<rect x="4.66663" y="4" width="48" height="48" rx="24" fill="#B1CBE3" fill-opacity="0.6"/>
<rect x="4.66663" y="4" width="48" height="48" rx="24" stroke="#E6EEF6" stroke-width="8"/>
<path d="M22.761 27.2288C22.6988 26.8282 22.6666 26.4179 22.6666 26C22.6666 21.5817 26.2719 18 30.7192 18C35.1666 18 38.7719 21.5817 38.7719 26C38.7719 26.9981 38.5879 27.9535 38.2518 28.8345C38.182 29.0175 38.1471 29.109 38.1312 29.1804C38.1155 29.2512 38.1095 29.301 38.1078 29.3735C38.106 29.4466 38.116 29.5272 38.1358 29.6883L38.5384 32.9585C38.582 33.3125 38.6037 33.4895 38.5449 33.6182C38.4933 33.731 38.4016 33.8205 38.2877 33.8695C38.1577 33.9254 37.9813 33.8995 37.6283 33.8478L34.4431 33.3809C34.2768 33.3565 34.1936 33.3443 34.1179 33.3448C34.0429 33.3452 33.9911 33.3507 33.9178 33.3661C33.8437 33.3817 33.749 33.4172 33.5596 33.4881C32.6763 33.819 31.719 34 30.7192 34C30.301 34 29.8903 33.9683 29.4893 33.9073M24.2982 38C27.2631 38 29.6666 35.5376 29.6666 32.5C29.6666 29.4624 27.2631 27 24.2982 27C21.3333 27 18.9298 29.4624 18.9298 32.5C18.9298 33.1106 19.0269 33.6979 19.2062 34.2467C19.282 34.4787 19.3198 34.5947 19.3323 34.6739C19.3453 34.7567 19.3475 34.8031 19.3427 34.8867C19.3381 34.9668 19.318 35.0573 19.278 35.2383L18.6666 38L21.6614 37.591C21.8249 37.5687 21.9066 37.5575 21.978 37.558C22.0531 37.5585 22.093 37.5626 22.1667 37.5773C22.2367 37.5912 22.3408 37.6279 22.5489 37.7014C23.0972 37.8949 23.6857 38 24.2982 38Z" stroke="#024E95" stroke-width="2" stroke-linecap="round" stroke-linejoin="round"/>
</svg>
