<svg width="56" height="56" viewBox="0 0 56 56" fill="none" xmlns="http://www.w3.org/2000/svg">
<rect x="4" y="4" width="48" height="48" rx="24" fill="#B1CBE3" fill-opacity="0.6"/>
<rect x="4" y="4" width="48" height="48" rx="24" stroke="#E6EEF6" stroke-width="8"/>
<path d="M34 31.8369C35.4559 32.5683 36.7041 33.742 37.6152 35.2096C37.7957 35.5003 37.8859 35.6456 37.9171 35.8468C37.9805 36.2558 37.7008 36.7585 37.3199 36.9204C37.1325 37 36.9217 37 36.5 37M32 27.5322C33.4817 26.7959 34.5 25.2669 34.5 23.5C34.5 21.7331 33.4817 20.2041 32 19.4678M30 23.5C30 25.9853 27.9853 28 25.5 28C23.0147 28 21 25.9853 21 23.5C21 21.0147 23.0147 19 25.5 19C27.9853 19 30 21.0147 30 23.5ZM18.5592 34.9383C20.1535 32.5446 22.6694 31 25.5 31C28.3306 31 30.8465 32.5446 32.4408 34.9383C32.79 35.4628 32.9647 35.725 32.9446 36.0599C32.9289 36.3207 32.758 36.64 32.5496 36.7976C32.2819 37 31.9138 37 31.1776 37H19.8224C19.0862 37 18.7181 37 18.4504 36.7976C18.2421 36.64 18.0711 36.3207 18.0554 36.0599C18.0353 35.725 18.21 35.4628 18.5592 34.9383Z" stroke="#024E95" stroke-width="2" stroke-linecap="round" stroke-linejoin="round"/>
</svg>
