<svg width="25" height="24" viewBox="0 0 25 24" fill="none" xmlns="http://www.w3.org/2000/svg">
<path d="M21.9262 7.20301C21.8123 6.78041 21.5897 6.39501 21.2806 6.08518C20.9714 5.77534 20.5866 5.55187 20.1642 5.43701C18.5982 5.00701 12.3332 5.00001 12.3332 5.00001C12.3332 5.00001 6.06922 4.99301 4.50222 5.40401C4.08014 5.52415 3.69604 5.75078 3.38678 6.06214C3.07753 6.3735 2.8535 6.75913 2.73622 7.18201C2.32322 8.74801 2.31922 11.996 2.31922 11.996C2.31922 11.996 2.31522 15.26 2.72522 16.81C2.95522 17.667 3.63022 18.344 4.48822 18.575C6.07022 19.005 12.3182 19.012 12.3182 19.012C12.3182 19.012 18.5832 19.019 20.1492 18.609C20.5717 18.4943 20.957 18.2714 21.2669 17.9622C21.5768 17.653 21.8006 17.2682 21.9162 16.846C22.3302 15.281 22.3332 12.034 22.3332 12.034C22.3332 12.034 22.3532 8.76901 21.9262 7.20301ZM10.3292 15.005L10.3342 9.00501L15.5412 12.01L10.3292 15.005Z" fill="white"/>
</svg>
